<svg viewBox="0 0 1000 1000" xmlns="http://www.w3.org/2000/svg">
  <!-- Navy Blue Background -->
  <rect width="1000" height="1000" fill="#06123B"/>
  
  <!-- KIPM 3D Letters -->
  <g transform="translate(120, 300)">
    
    <!-- K with Rocket Element -->
    <g>
      <!-- K Letter Base -->
      <path d="M0 0 L0 200 L40 200 L40 110 L100 200 L160 200 L85 100 L140 0 L90 0 L55 75 L40 60 L40 0 Z" 
            fill="white" stroke="#f0f0f0" stroke-width="2"/>
      
      <!-- 3D Effect for K -->
      <path d="M40 0 L50 -10 L50 190 L40 200 Z" fill="#e0e0e0"/>
      <path d="M0 0 L10 -10 L50 -10 L40 0 Z" fill="#e0e0e0"/>
      
      <!-- Rocket Element -->
      <g transform="translate(20, -30)">
        <path d="M0 10 L30 -5 L45 10 L30 25 Z" fill="#E63946"/>
        <path d="M5 5 L25 -2 L35 8 L25 18 Z" fill="#F4A300"/> 
        <path d="M10 15 L25 12 L35 20 L25 28 Z" fill="#FDC500"/>
        <!-- Flame effect -->
        <path d="M-5 10 L0 5 L5 15 L0 20 Z" fill="#FF6B35"/>
      </g>
    </g>
    
    <!-- I Letter -->
    <g transform="translate(200, 0)">
      <path d="M0 0 L80 0 L80 30 L50 30 L50 170 L80 170 L80 200 L0 200 L0 170 L30 170 L30 30 L0 30 Z" 
            fill="white"/>
      <!-- 3D Effect -->
      <path d="M80 0 L90 -10 L90 190 L80 200 Z" fill="#e0e0e0"/>
      <path d="M0 0 L10 -10 L90 -10 L80 0 Z" fill="#e0e0e0"/>
    </g>
    
    <!-- P Letter -->
    <g transform="translate(320, 0)">
      <path d="M0 0 L0 200 L40 200 L40 120 L80 120 Q120 120 120 80 Q120 40 80 0 Z M40 30 L40 90 L75 90 Q90 90 90 80 Q90 70 75 60 Q60 50 40 30 Z" 
            fill="white"/>
      <!-- 3D Effect -->
      <path d="M40 0 L50 -10 L130 -10 Q130 40 130 80 Q130 120 120 120 L40 120 Z" fill="#e0e0e0"/>
    </g>
    
    <!-- M Letter -->
    <g transform="translate(480, 0)">
      <path d="M0 0 L0 200 L40 200 L40 60 L70 140 L90 140 L120 60 L120 200 L160 200 L160 0 L110 0 L80 100 L50 0 Z" 
            fill="white"/>
      <!-- 3D Effect -->
      <path d="M160 0 L170 -10 L170 190 L160 200 Z" fill="#e0e0e0"/>
      <path d="M0 0 L10 -10 L170 -10 L160 0 Z" fill="#e0e0e0"/>
    </g>
  </g>
  
  <!-- INNOVATORS Text -->
  <text x="500" y="700" text-anchor="middle" fill="white" font-size="80" font-weight="bold" letter-spacing="8" font-family="Arial, sans-serif">
    INNOVATORS
  </text>
  
  <!-- FOUNDATION Text -->
  <text x="500" y="800" text-anchor="middle" fill="white" font-size="80" font-weight="bold" letter-spacing="8" font-family="Arial, sans-serif">
    FOUNDATION
  </text>
  
  <!-- Decorative Elements -->
  <g transform="translate(50, 50)">
    <circle cx="0" cy="0" r="8" fill="#F4A300"/>
    <circle cx="25" cy="15" r="5" fill="#E63946"/>
    <circle cx="15" cy="35" r="6" fill="#FDC500"/>
  </g>
  
  <g transform="translate(900, 50)">
    <circle cx="0" cy="0" r="8" fill="#F4A300"/>
    <circle cx="-25" cy="15" r="5" fill="#E63946"/> 
    <circle cx="-15" cy="35" r="6" fill="#FDC500"/>
  </g>
</svg>
